<svg xmlns="http://www.w3.org/2000/svg" viewBox="0 0 640 640" role="img" aria-labelledby="title desc">
  <title id="title">MySpace profile fallback</title>
  <desc id="desc">A retro MySpace themed fallback profile card with stars and neon gradients.</desc>
  <defs>
    <linearGradient id="bg" x1="0" y1="0" x2="1" y2="1">
      <stop offset="0%" stop-color="#13021f" />
      <stop offset="50%" stop-color="#22052f" />
      <stop offset="100%" stop-color="#0b0b14" />
    </linearGradient>
    <linearGradient id="ring" x1="0" y1="0" x2="1" y2="1">
      <stop offset="0%" stop-color="#ff4fa8" />
      <stop offset="100%" stop-color="#8f5dff" />
    </linearGradient>
  </defs>
  <rect width="640" height="640" fill="url(#bg)" />
  <g fill="#ffffff" opacity="0.75">
    <circle cx="72" cy="80" r="3" />
    <circle cx="132" cy="56" r="2" />
    <circle cx="208" cy="92" r="2" />
    <circle cx="518" cy="68" r="2.5" />
    <circle cx="584" cy="108" r="2" />
    <circle cx="544" cy="170" r="3" />
    <circle cx="84" cy="540" r="3" />
    <circle cx="148" cy="586" r="2" />
    <circle cx="510" cy="556" r="2.5" />
    <circle cx="578" cy="602" r="2" />
  </g>
  <rect x="56" y="56" width="528" height="528" rx="18" fill="#0f0f18" stroke="#2e2e43" stroke-width="4" />
  <circle cx="320" cy="255" r="132" fill="#151526" stroke="url(#ring)" stroke-width="10" />
  <circle cx="320" cy="230" r="48" fill="#e8c3d9" opacity="0.95" />
  <path d="M210 388c24-54 68-82 110-82s86 28 110 82" fill="#e8c3d9" opacity="0.95" />
  <rect x="130" y="456" width="380" height="72" rx="10" fill="#18182b" stroke="#2e2e43" stroke-width="3" />
  <text x="320" y="486" text-anchor="middle" fill="#ff6db8" font-size="28" font-family="Trebuchet MS, Verdana, Arial, sans-serif" font-weight="700">
    MySpace Profile
  </text>
  <text x="320" y="512" text-anchor="middle" fill="#a6a4bf" font-size="16" font-family="Trebuchet MS, Verdana, Arial, sans-serif">
    image unavailable
  </text>
</svg>
